<svg xmlns="http://www.w3.org/2000/svg" version="1.1" xmlns:xlink="http://www.w3.org/1999/xlink" xmlns:svgjs="http://svgjs.dev/svgjs" width="1000" height="750" viewBox="0 0 1000 750"><rect width="1000" height="750" fill="#ffffff"></rect><g transform="matrix(0.834,0,0,0.834,82.49454545454546,198.96868086665202)"><svg viewBox="0 0 396 167" data-background-color="#ffffff" preserveAspectRatio="xMidYMid meet" height="421" width="1000" xmlns="http://www.w3.org/2000/svg" xmlns:xlink="http://www.w3.org/1999/xlink"><g id="tight-bounds" transform="matrix(1,0,0,1,0.2400000000000091,0.2255999341214192)"><svg viewBox="0 0 395.52 166.54880013175716" height="166.54880013175716" width="395.52"><g><svg viewBox="0 0 648.0658370895078 272.8928690676586" height="166.54880013175716" width="395.52"><g></g><g transform="matrix(1,0,0,1,316.61078497760434,0.6788379827553683)"><svg viewBox="0 0 331.45505211190346 271.53519310214784" height="271.53519310214784" width="331.45505211190346"><g id="textblocktransform"><svg viewBox="0 0 331.45505211190346 271.53519310214784" height="271.53519310214784" width="331.45505211190346" id="textblock"><g><svg viewBox="0 0 331.45505211190346 198.76399999999998" height="198.76399999999998" width="331.45505211190346"><g transform="matrix(1,0,0,1,0,0)"><svg width="331.45505211190346" viewBox="2.33 -34.98 75.99 45.58" height="198.76399999999998" data-palette-color="url(#22cd0cbe-d359-402a-bb15-ac4b130ddeb5)"><g class="wordmark-text-0" data-fill-palette-color="primary" id="text-0"></g></svg></g></svg></g><g transform="matrix(1,0,0,1,0,245.68741006399998)"><svg viewBox="0 0 314.88229950630824 25.84778303814787" height="25.84778303814787" width="314.88229950630824"><g transform="matrix(1,0,0,1,0,0)"><svg width="314.88229950630824" viewBox="1.75 -39.65 615.13 50.5" height="25.84778303814787" data-palette-color="url(#e2abb69b-a911-4860-a535-d3bbb4b9fd09)"></svg></g></svg></g></svg></g></svg></g><g transform="matrix(1,0,0,1,0,18.18433373152577)"><svg viewBox="0 0 204.83922220515635 236.52420160460704" height="236.52420160460704" width="204.83922220515635"><g><svg xmlns="http://www.w3.org/2000/svg" xmlns:xlink="http://www.w3.org/1999/xlink" version="1.1" x="0" y="0" viewBox="36.2246094 10.5 136.2167969 157.2871093" enable-background="new 0 0 208 176" xml:space="preserve" height="236.52420160460704" width="204.83922220515635" class="icon-icon-0" data-fill-palette-color="accent" id="icon-0"><path d="M104.335 10.5L36.225 49.822v78.643l68.11 39.322 68.106-39.322V49.822L104.335 10.5zM110.859 29.336l42.147 24.334L110.859 77.943V29.336zM97.81 77.813L55.837 53.566l41.973-24.23V77.813zM91.371 89.169l-42.098 24.242V64.85L91.371 89.169zM97.81 100.517v48.434l-41.998-24.245L97.81 100.517zM110.859 100.428l42.012 24.267-42.012 24.256V100.428zM117.487 89.185l41.904-24.136v48.342L117.487 89.185z" fill="#b10dc9" data-fill-palette-color="accent"></path></svg></g></svg></g></svg></g><defs></defs><mask id="c1d59e25-665f-4a06-8a5a-856cf3cb79c2"><g id="SvgjsG1054"><svg viewBox="0 0 395.52 166.54880013175716" height="166.54880013175716" width="395.52"><g><svg viewBox="0 0 648.0658370895078 272.8928690676586" height="166.54880013175716" width="395.52"><g><rect width="17.924742644448" height="272.8928690676586" x="251.76263226915634" y="0" fill="white" opacity="1" stroke-width="0" stroke="transparent" fill-opacity="1" class="rect-qz-0" rx="1%" id="SvgjsRect1053" data-palette-color="url(#22cd0cbe-d359-402a-bb15-ac4b130ddeb5)"></rect></g><g transform="matrix(1,0,0,1,316.61078497760434,0.6788379827553683)"><svg viewBox="0 0 331.45505211190346 271.53519310214784" height="271.53519310214784" width="331.45505211190346"><g id="SvgjsG1052"><svg viewBox="0 0 331.45505211190346 271.53519310214784" height="271.53519310214784" width="331.45505211190346" id="SvgjsSvg1051"><g><svg viewBox="0 0 331.45505211190346 198.76399999999998" height="198.76399999999998" width="331.45505211190346"><g transform="matrix(1,0,0,1,0,0)"><svg width="331.45505211190346" viewBox="2.33 -34.98 75.99 45.58" height="198.76399999999998" data-palette-color="url(#22cd0cbe-d359-402a-bb15-ac4b130ddeb5)"><g class="wordmark-text-0" data-fill-palette-color="primary" id="SvgjsG1050"><path d="M27.68-17.18L27.68-17.18Q27.68-11.98 26.26-7.96 24.85-3.95 22.03-1.69 19.2 0.58 15 0.58L15 0.58Q10.83 0.58 7.99-1.64 5.15-3.85 3.74-7.83 2.33-11.8 2.33-17.13L2.33-17.13Q2.33-22.35 3.74-26.38 5.15-30.4 7.99-32.69 10.83-34.98 15-34.98L15-34.98Q19.2-34.98 22.03-32.75 24.85-30.53 26.26-26.53 27.68-22.53 27.68-17.18ZM23.13-17.18L23.13-17.18Q23.13-24.05 21.24-27.7 19.35-31.35 15-31.35L15-31.35Q10.65-31.35 8.76-27.68 6.88-24 6.88-17.13L6.88-17.13Q6.88-10.25 8.83-6.66 10.78-3.08 15-3.08L15-3.08Q19.35-3.08 21.24-6.69 23.13-10.3 23.13-17.18ZM46.8-26.88L46.8-26.88Q50.3-26.88 52.39-25.18 54.47-23.48 55.4-20.39 56.32-17.3 56.32-13.18L56.32-13.18Q56.32-9.2 55.21-6.09 54.1-2.98 51.85-1.2 49.6 0.58 46.17 0.58L46.17 0.58Q41.85 0.58 39.22-2.48L39.22-2.48 39.22 10.08 35.02 10.6 35.02-26.33 38.6-26.33 38.95-22.65Q40.4-24.68 42.41-25.78 44.42-26.88 46.8-26.88ZM45.8-23.5L45.8-23.5Q43.62-23.5 41.96-22.19 40.3-20.88 39.22-19.28L39.22-19.28 39.22-6.23Q40.25-4.7 41.81-3.81 43.37-2.93 45.25-2.93L45.25-2.93Q48.52-2.93 50.17-5.43 51.82-7.93 51.82-13.2L51.82-13.2Q51.82-16.65 51.17-18.94 50.52-21.23 49.2-22.36 47.87-23.5 45.8-23.5ZM72.52-34.43L77.22-34.43 76.8-11.35 73.02-11.35 72.52-34.43ZM74.95-6.13L74.95-6.13Q76.4-6.13 77.36-5.15 78.32-4.17 78.32-2.8L78.32-2.8Q78.32-1.4 77.36-0.41 76.4 0.58 74.95 0.58L74.95 0.58Q73.52 0.58 72.57-0.41 71.62-1.4 71.62-2.8L71.62-2.8Q71.62-4.17 72.57-5.15 73.52-6.13 74.95-6.13Z" fill="white"></path></g></svg></g></svg></g><g transform="matrix(1,0,0,1,0,245.68741006399998)"><svg viewBox="0 0 314.88229950630824 25.84778303814787" height="25.84778303814787" width="314.88229950630824"><g transform="matrix(1,0,0,1,0,0)"><svg width="314.88229950630824" viewBox="1.75 -39.65 615.13 50.5" height="25.84778303814787" data-palette-color="url(#e2abb69b-a911-4860-a535-d3bbb4b9fd09)"></svg></g></svg></g></svg></g></svg></g><g transform="matrix(1,0,0,1,0,18.18433373152577)"><svg viewBox="0 0 204.83922220515635 236.52420160460704" height="236.52420160460704" width="204.83922220515635"><g><svg xmlns="http://www.w3.org/2000/svg" xmlns:xlink="http://www.w3.org/1999/xlink" version="1.1" x="0" y="0" viewBox="36.2246094 10.5 136.2167969 157.2871093" enable-background="new 0 0 208 176" xml:space="preserve" height="236.52420160460704" width="204.83922220515635" class="icon-icon-0" data-fill-palette-color="accent" id="SvgjsSvg1048"></svg></g></svg></g></svg></g><defs><mask></mask></defs></svg></g></mask><linearGradient x1="0" x2="1" y1="0.548" y2="0.55" id="22cd0cbe-d359-402a-bb15-ac4b130ddeb5"><stop stop-color="#ff6cab" offset="0"></stop><stop stop-color="#7366ff" offset="1"></stop></linearGradient><rect width="395.52" height="166.54880013175716" fill="url(#22cd0cbe-d359-402a-bb15-ac4b130ddeb5)" mask="url(#c1d59e25-665f-4a06-8a5a-856cf3cb79c2)" data-fill-palette-color="primary"></rect><mask id="60efc5ad-f84b-4456-918f-d5fb3aa45191"><g id="SvgjsG1066"><svg viewBox="0 0 395.52 166.54880013175716" height="166.54880013175716" width="395.52"><g><svg viewBox="0 0 648.0658370895078 272.8928690676586" height="166.54880013175716" width="395.52"><g></g><g transform="matrix(1,0,0,1,316.61078497760434,0.6788379827553683)"><svg viewBox="0 0 331.45505211190346 271.53519310214784" height="271.53519310214784" width="331.45505211190346"><g id="SvgjsG1065"><svg viewBox="0 0 331.45505211190346 271.53519310214784" height="271.53519310214784" width="331.45505211190346" id="SvgjsSvg1064"><g><svg viewBox="0 0 331.45505211190346 198.76399999999998" height="198.76399999999998" width="331.45505211190346"><g transform="matrix(1,0,0,1,0,0)"><svg width="331.45505211190346" viewBox="2.33 -34.98 75.99 45.58" height="198.76399999999998" data-palette-color="url(#22cd0cbe-d359-402a-bb15-ac4b130ddeb5)"><g class="wordmark-text-0" data-fill-palette-color="primary" id="SvgjsG1063"></g></svg></g></svg></g><g transform="matrix(1,0,0,1,0,245.68741006399998)"><svg viewBox="0 0 314.88229950630824 25.84778303814787" height="25.84778303814787" width="314.88229950630824"><g transform="matrix(1,0,0,1,0,0)"><svg width="314.88229950630824" viewBox="1.75 -39.65 615.13 50.5" height="25.84778303814787" data-palette-color="url(#e2abb69b-a911-4860-a535-d3bbb4b9fd09)"><path d="M15.25-35.25Q18.1-35.25 20.35-34.23 22.6-33.2 24.6-31.25L24.6-31.25 21.4-27.95Q19.85-29.3 18.5-29.88 17.15-30.45 15.45-30.45L15.45-30.45Q12.15-30.45 10.28-27.5 8.4-24.55 8.4-17.3L8.4-17.3Q8.4-12.2 9.08-9.33 9.75-6.45 11.08-5.3 12.4-4.15 14.55-4.15L14.55-4.15Q16.8-4.15 18.65-5.4L18.65-5.4 18.65-14.75 14.75-14.75 14.1-19.5 24.7-19.5 24.7-2.6Q22.55-1.05 19.93-0.18 17.3 0.7 14.6 0.7L14.6 0.7Q8.15 0.7 4.95-3.68 1.75-8.05 1.75-17.3L1.75-17.3Q1.75-23.3 3.53-27.33 5.3-31.35 8.35-33.3 11.4-35.25 15.25-35.25L15.25-35.25ZM39.15-27.15Q44.15-27.15 46.92-23.65 49.7-20.15 49.7-13.25L49.7-13.25Q49.7-6.65 46.9-2.95 44.1 0.75 39.15 0.75L39.15 0.75Q34.2 0.75 31.4-2.88 28.6-6.5 28.6-13.25L28.6-13.25Q28.6-19.95 31.4-23.55 34.2-27.15 39.15-27.15L39.15-27.15ZM39.15-22.5Q37-22.5 36-20.38 35-18.25 35-13.25L35-13.25Q35-8.2 36-6.08 37-3.95 39.15-3.95L39.15-3.95Q41.3-3.95 42.3-6.08 43.3-8.2 43.3-13.25L43.3-13.25Q43.3-18.3 42.3-20.4 41.3-22.5 39.15-22.5L39.15-22.5ZM70.59 0L64.24 0 64.24-34.55 80.94-34.55 80.24-29.8 70.59-29.8 70.59-19.25 78.99-19.25 78.99-14.5 70.59-14.5 70.59 0ZM95.89-27.1Q97.04-27.1 97.94-26.75L97.94-26.75 96.94-20.85Q95.94-21.1 95.09-21.1L95.09-21.1Q93.19-21.1 92.09-19.45 90.99-17.8 90.39-14.55L90.39-14.55 90.39 0 84.24 0 84.24-26.45 89.59-26.45 90.04-21.85Q91.89-27.1 95.89-27.1L95.89-27.1ZM117.69-6.4Q117.69-5.1 118.04-4.48 118.39-3.85 119.19-3.45L119.19-3.45 117.94 0.65Q115.89 0.4 114.66-0.45 113.44-1.3 112.84-3.05L112.84-3.05Q110.54 0.75 106.39 0.75L106.39 0.75Q103.09 0.75 101.14-1.48 99.19-3.7 99.19-7.4L99.19-7.4Q99.19-11.7 101.86-13.95 104.54-16.2 109.64-16.2L109.64-16.2 111.69-16.2 111.69-18.05Q111.69-20.55 110.81-21.58 109.94-22.6 107.99-22.6L107.99-22.6Q105.64-22.6 102.14-21.3L102.14-21.3 100.74-25.3Q102.74-26.2 104.89-26.68 107.04-27.15 108.99-27.15L108.99-27.15Q117.69-27.15 117.69-18.35L117.69-18.35 117.69-6.4ZM108.04-3.7Q110.44-3.7 111.69-7L111.69-7 111.69-12.55 110.24-12.55Q107.69-12.55 106.51-11.4 105.34-10.25 105.34-7.85L105.34-7.85Q105.34-5.8 106.04-4.75 106.74-3.7 108.04-3.7L108.04-3.7ZM147.14-27.15Q149.79-27.15 151.39-25.1 152.99-23.05 152.99-19.6L152.99-19.6 152.99 0 146.94 0 146.94-18.95Q146.94-20.85 146.44-21.68 145.94-22.5 144.99-22.5L144.99-22.5Q143.04-22.5 141.24-18.8L141.24-18.8 141.24 0 135.24 0 135.24-18.95Q135.24-22.5 133.34-22.5L133.34-22.5Q131.29-22.5 129.54-18.8L129.54-18.8 129.54 0 123.49 0 123.49-26.45 128.84-26.45 129.24-23.05Q131.84-27.15 135.49-27.15L135.49-27.15Q137.34-27.15 138.69-26 140.04-24.85 140.74-22.75L140.74-22.75Q143.39-27.15 147.14-27.15L147.14-27.15ZM177.33-13.85Q177.33-13.4 177.18-11.3L177.18-11.3 163.53-11.3Q163.73-7.2 164.96-5.58 166.18-3.95 168.43-3.95L168.43-3.95Q169.98-3.95 171.23-4.48 172.48-5 173.93-6.15L173.93-6.15 176.48-2.65Q172.98 0.75 168.08 0.75L168.08 0.75Q162.88 0.75 160.11-2.85 157.33-6.45 157.33-13L157.33-13Q157.33-19.55 159.98-23.35 162.63-27.15 167.48-27.15L167.48-27.15Q172.13-27.15 174.73-23.78 177.33-20.4 177.33-13.85L177.33-13.85ZM171.33-15.3L171.33-15.65Q171.33-19.4 170.43-21.13 169.53-22.85 167.53-22.85L167.53-22.85Q165.68-22.85 164.71-21.18 163.73-19.5 163.53-15.3L163.53-15.3 171.33-15.3ZM203.68-26.45L209.38-26.45 204.83 0 197.33 0 194.38-20.85 191.48 0 184.03 0 179.38-26.45 185.33-26.45 188.03-4.6 191.38-26.45 197.63-26.45 200.83-4.6 203.68-26.45ZM222.28-27.15Q227.28-27.15 230.05-23.65 232.83-20.15 232.83-13.25L232.83-13.25Q232.83-6.65 230.03-2.95 227.23 0.75 222.28 0.75L222.28 0.75Q217.33 0.75 214.53-2.88 211.73-6.5 211.73-13.25L211.73-13.25Q211.73-19.95 214.53-23.55 217.33-27.15 222.28-27.15L222.28-27.15ZM222.28-22.5Q220.13-22.5 219.13-20.38 218.13-18.25 218.13-13.25L218.13-13.25Q218.13-8.2 219.13-6.08 220.13-3.95 222.28-3.95L222.28-3.95Q224.43-3.95 225.43-6.08 226.43-8.2 226.43-13.25L226.43-13.25Q226.43-18.3 225.43-20.4 224.43-22.5 222.28-22.5L222.28-22.5ZM249.03-27.1Q250.18-27.1 251.08-26.75L251.08-26.75 250.08-20.85Q249.08-21.1 248.23-21.1L248.23-21.1Q246.33-21.1 245.23-19.45 244.13-17.8 243.53-14.55L243.53-14.55 243.53 0 237.38 0 237.38-26.45 242.73-26.45 243.18-21.85Q245.03-27.1 249.03-27.1L249.03-27.1ZM253.92-37.05L260.07-37.7 260.07 0 253.92 0 253.92-37.05ZM267.42-26.45L273.42-26.45 266.42-14.75 274.02 0 267.42 0 260.32-14.45 267.42-26.45ZM292.92 0L286.57 0 286.57-34.55 303.27-34.55 302.57-29.8 292.92-29.8 292.92-19.25 301.32-19.25 301.32-14.5 292.92-14.5 292.92 0ZM315.97-27.15Q320.97-27.15 323.74-23.65 326.52-20.15 326.52-13.25L326.52-13.25Q326.52-6.65 323.72-2.95 320.92 0.75 315.97 0.75L315.97 0.75Q311.02 0.75 308.22-2.88 305.42-6.5 305.42-13.25L305.42-13.25Q305.42-19.95 308.22-23.55 311.02-27.15 315.97-27.15L315.97-27.15ZM315.97-22.5Q313.82-22.5 312.82-20.38 311.82-18.25 311.82-13.25L311.82-13.25Q311.82-8.2 312.82-6.08 313.82-3.95 315.97-3.95L315.97-3.95Q318.12-3.95 319.12-6.08 320.12-8.2 320.12-13.25L320.12-13.25Q320.12-18.3 319.12-20.4 318.12-22.5 315.97-22.5L315.97-22.5ZM342.71-27.1Q343.86-27.1 344.76-26.75L344.76-26.75 343.76-20.85Q342.76-21.1 341.91-21.1L341.91-21.1Q340.01-21.1 338.91-19.45 337.81-17.8 337.21-14.55L337.21-14.55 337.21 0 331.06 0 331.06-26.45 336.41-26.45 336.86-21.85Q338.71-27.1 342.71-27.1L342.71-27.1ZM371.66-18.3Q375.01-17.55 376.93-15.63 378.86-13.7 378.86-9.9L378.86-9.9Q378.86-4.9 375.48-2.45 372.11 0 366.31 0L366.31 0 357.61 0 357.61-34.55 365.16-34.55Q371.11-34.55 374.36-32.3 377.61-30.05 377.61-25.75L377.61-25.75Q377.61-22.85 375.98-20.95 374.36-19.05 371.66-18.3L371.66-18.3ZM365.81-29.85L363.96-29.85 363.96-20.3 366.11-20.3Q371.16-20.3 371.16-25.2L371.16-25.2Q371.16-27.65 369.88-28.75 368.61-29.85 365.81-29.85L365.81-29.85ZM366.36-4.8Q369.26-4.8 370.76-6.03 372.26-7.25 372.26-10.15L372.26-10.15Q372.26-13.05 370.86-14.43 369.46-15.8 366.51-15.8L366.51-15.8 363.96-15.8 363.96-4.8 366.36-4.8ZM401.01-26.45L401.01 0 395.66 0 395.36-3.35Q394.11-1.3 392.56-0.28 391.01 0.75 388.96 0.75L388.96 0.75Q386.06 0.75 384.38-1.3 382.71-3.35 382.71-6.65L382.71-6.65 382.71-26.45 388.86-26.45 388.86-7Q388.86-3.9 390.96-3.9L390.96-3.9Q392.16-3.9 393.11-4.83 394.06-5.75 394.86-7.45L394.86-7.45 394.86-26.45 401.01-26.45ZM414.05-27.15Q418.75-27.15 422-24.05L422-24.05 419.65-20.7Q418.25-21.7 417-22.2 415.75-22.7 414.45-22.7L414.45-22.7Q413-22.7 412.18-21.93 411.35-21.15 411.35-19.8L411.35-19.8Q411.35-18.45 412.28-17.63 413.2-16.8 416-15.7L416-15.7Q419.45-14.35 421.1-12.5 422.75-10.65 422.75-7.55L422.75-7.55Q422.75-3.7 420.05-1.48 417.35 0.75 413.2 0.75L413.2 0.75Q410.5 0.75 408.23-0.23 405.95-1.2 404.25-2.95L404.25-2.95 407.25-6.25Q410.05-3.8 412.95-3.8L412.95-3.8Q414.6-3.8 415.55-4.67 416.5-5.55 416.5-7.1L416.5-7.1Q416.5-8.25 416.1-8.97 415.7-9.7 414.7-10.33 413.7-10.95 411.7-11.7L411.7-11.7Q408.25-13.05 406.78-14.85 405.3-16.65 405.3-19.45L405.3-19.45Q405.3-22.8 407.68-24.98 410.05-27.15 414.05-27.15L414.05-27.15ZM445.25-26.45L438.25 0.1Q436.95 4.9 434.05 7.65 431.15 10.4 426.3 10.85L426.3 10.85 425.6 6.5Q428.75 5.85 430.33 4.42 431.9 3 432.8 0L432.8 0 430.5 0 423.8-26.45 430.05-26.45 434.45-4.1 439.15-26.45 445.25-26.45ZM480.1 0L473.65 0 471.95-8.1 463.05-8.1 461.4 0 455.05 0 463.75-34.55 471.45-34.55 480.1 0ZM467.5-29.7L464.05-12.9 471-12.9 467.5-29.7ZM495.04-27.15Q498.94-27.15 500.94-23.58 502.94-20 502.94-13.3L502.94-13.3Q502.94-6.8 500.67-3.03 498.39 0.75 494.34 0.75L494.34 0.75Q491.14 0.75 488.99-2.1L488.99-2.1 488.99 10.15 482.84 10.85 482.84-26.45 488.29-26.45 488.54-23.25Q489.84-25.25 491.44-26.2 493.04-27.15 495.04-27.15L495.04-27.15ZM492.69-3.95Q494.59-3.95 495.59-6.13 496.59-8.3 496.59-13.25L496.59-13.25Q496.59-18.45 495.74-20.5 494.89-22.55 493.09-22.55L493.09-22.55Q490.79-22.55 488.99-19.25L488.99-19.25 488.99-6.45Q490.59-3.95 492.69-3.95L492.69-3.95ZM507.54-26.45L513.69-26.45 513.69 0 507.54 0 507.54-26.45ZM510.59-39.65Q512.24-39.65 513.27-38.6 514.29-37.55 514.29-35.9L514.29-35.9Q514.29-34.3 513.27-33.25 512.24-32.2 510.59-32.2L510.59-32.2Q508.94-32.2 507.92-33.25 506.89-34.3 506.89-35.9L506.89-35.9Q506.89-37.55 507.92-38.6 508.94-39.65 510.59-39.65L510.59-39.65ZM537.09-34.55Q541.43-34.55 544.61-33.23 547.78-31.9 549.76-28.13 551.74-24.35 551.74-17.45L551.74-17.45Q551.74-7.7 547.86-3.85 543.99 0 537.74 0L537.74 0 529.38 0 529.38-34.55 537.09-34.55ZM538.03-29.8L535.74-29.8 535.74-4.75 538.09-4.75Q540.34-4.75 541.86-5.8 543.38-6.85 544.26-9.65 545.13-12.45 545.13-17.45L545.13-17.45Q545.13-22.55 544.21-25.25 543.28-27.95 541.76-28.88 540.24-29.8 538.03-29.8L538.03-29.8ZM575.18-13.85Q575.18-13.4 575.03-11.3L575.03-11.3 561.38-11.3Q561.58-7.2 562.81-5.58 564.03-3.95 566.28-3.95L566.28-3.95Q567.83-3.95 569.08-4.48 570.33-5 571.78-6.15L571.78-6.15 574.33-2.65Q570.83 0.75 565.93 0.75L565.93 0.75Q560.73 0.75 557.96-2.85 555.18-6.45 555.18-13L555.18-13Q555.18-19.55 557.83-23.35 560.48-27.15 565.33-27.15L565.33-27.15Q569.98-27.15 572.58-23.78 575.18-20.4 575.18-13.85L575.18-13.85ZM569.18-15.3L569.18-15.65Q569.18-19.4 568.28-21.13 567.38-22.85 565.38-22.85L565.38-22.85Q563.53-22.85 562.56-21.18 561.58-19.5 561.38-15.3L561.38-15.3 569.18-15.3ZM591.88-26.45L597.93-26.45 591.03 0 583.78 0 576.68-26.45 583.03-26.45 587.38-4.95 591.88-26.45ZM608.18-27.15Q612.88-27.15 616.13-24.05L616.13-24.05 613.78-20.7Q612.38-21.7 611.13-22.2 609.88-22.7 608.58-22.7L608.58-22.7Q607.13-22.7 606.3-21.93 605.48-21.15 605.48-19.8L605.48-19.8Q605.48-18.45 606.4-17.63 607.33-16.8 610.13-15.7L610.13-15.7Q613.58-14.35 615.23-12.5 616.88-10.65 616.88-7.55L616.88-7.55Q616.88-3.7 614.18-1.48 611.48 0.75 607.33 0.75L607.33 0.75Q604.63 0.75 602.35-0.23 600.08-1.2 598.38-2.95L598.38-2.95 601.38-6.25Q604.18-3.8 607.08-3.8L607.08-3.8Q608.73-3.8 609.68-4.67 610.63-5.55 610.63-7.1L610.63-7.1Q610.63-8.25 610.23-8.97 609.83-9.7 608.83-10.33 607.83-10.95 605.83-11.7L605.83-11.7Q602.38-13.05 600.9-14.85 599.43-16.65 599.43-19.45L599.43-19.45Q599.43-22.8 601.8-24.98 604.18-27.15 608.18-27.15L608.18-27.15Z" opacity="1" transform="matrix(1,0,0,1,0,0)" fill="white" class="slogan-text-1" id="SvgjsPath1062"></path></svg></g></svg></g></svg></g></svg></g><g transform="matrix(1,0,0,1,0,18.18433373152577)"><svg viewBox="0 0 204.83922220515635 236.52420160460704" height="236.52420160460704" width="204.83922220515635"><g><svg xmlns="http://www.w3.org/2000/svg" xmlns:xlink="http://www.w3.org/1999/xlink" version="1.1" x="0" y="0" viewBox="36.2246094 10.5 136.2167969 157.2871093" enable-background="new 0 0 208 176" xml:space="preserve" height="236.52420160460704" width="204.83922220515635" class="icon-icon-0" data-fill-palette-color="accent" id="SvgjsSvg1061"></svg></g></svg></g></svg></g><defs><mask></mask></defs><mask><g id="SvgjsG1060"><svg viewBox="0 0 395.52 166.54880013175716" height="166.54880013175716" width="395.52"><g><svg viewBox="0 0 648.0658370895078 272.8928690676586" height="166.54880013175716" width="395.52"><g></g><g transform="matrix(1,0,0,1,316.61078497760434,0.6788379827553683)"><svg viewBox="0 0 331.45505211190346 271.53519310214784" height="271.53519310214784" width="331.45505211190346"><g id="SvgjsG1058"><svg viewBox="0 0 331.45505211190346 271.53519310214784" height="271.53519310214784" width="331.45505211190346" id="SvgjsSvg1057"><g><svg viewBox="0 0 331.45505211190346 198.76399999999998" height="198.76399999999998" width="331.45505211190346"><g transform="matrix(1,0,0,1,0,0)"><svg width="331.45505211190346" viewBox="2.33 -34.98 75.99 45.58" height="198.76399999999998" data-palette-color="url(#22cd0cbe-d359-402a-bb15-ac4b130ddeb5)"><g class="wordmark-text-0" data-fill-palette-color="primary" id="SvgjsG1056"></g></svg></g></svg></g><g transform="matrix(1,0,0,1,0,245.68741006399998)"><svg viewBox="0 0 314.88229950630824 25.84778303814787" height="25.84778303814787" width="314.88229950630824"><g transform="matrix(1,0,0,1,0,0)"><svg width="314.88229950630824" viewBox="1.75 -39.65 615.13 50.5" height="25.84778303814787" data-palette-color="url(#e2abb69b-a911-4860-a535-d3bbb4b9fd09)"></svg></g></svg></g></svg></g></svg></g><g transform="matrix(1,0,0,1,0,18.18433373152577)"><svg viewBox="0 0 204.83922220515635 236.52420160460704" height="236.52420160460704" width="204.83922220515635"><g><svg xmlns="http://www.w3.org/2000/svg" xmlns:xlink="http://www.w3.org/1999/xlink" version="1.1" x="0" y="0" viewBox="36.2246094 10.5 136.2167969 157.2871093" enable-background="new 0 0 208 176" xml:space="preserve" height="236.52420160460704" width="204.83922220515635" class="icon-icon-0" data-fill-palette-color="accent" id="SvgjsSvg1055"></svg></g></svg></g></svg></g><defs><mask></mask></defs></svg></g></mask></svg></g></mask><linearGradient x1="0" x2="1" y1="0.548" y2="0.55" id="e2abb69b-a911-4860-a535-d3bbb4b9fd09"><stop stop-color="#ff6cab" offset="0"></stop><stop stop-color="#7366ff" offset="1"></stop></linearGradient><rect width="395.52" height="166.54880013175716" fill="url(#e2abb69b-a911-4860-a535-d3bbb4b9fd09)" mask="url(#60efc5ad-f84b-4456-918f-d5fb3aa45191)" data-fill-palette-color="secondary"></rect></svg><rect width="395.52" height="166.54880013175716" fill="none" stroke="none" visibility="hidden"></rect></g></svg></g></svg>