<?xml version="1.0" encoding="iso-8859-1"?>
<!-- Uploaded to: SVG Repo, www.svgrepo.com, Generator: SVG Repo Mixer Tools -->
<svg height="800px" width="800px" version="1.1" id="Layer_1" xmlns="http://www.w3.org/2000/svg" xmlns:xlink="http://www.w3.org/1999/xlink" 
	 viewBox="0 0 512 512" xml:space="preserve">
<path style="fill:#FF3F62;" d="M453.059,9.331C448.666,3.458,441.76,0,434.424,0c-7.336,0-14.241,3.458-18.635,9.331
	c-13.827,18.48-58.941,81.5-58.941,116.514c0,26.152,13.022,49.307,32.909,63.367l-37.559,34.028
	c-4.766-20.916-13.267-36.507-25.827-47.745c-11.736-10.502-25.429-15.681-39.745-18.17l38.209-127.351
	c3.694-12.311-3.292-25.285-15.604-28.979c-12.308-3.697-25.285,3.292-28.979,15.604L256,97.44l-24.255-80.842
	C228.051,4.287,215.08-2.698,202.766,0.995c-12.311,3.693-19.298,16.668-15.604,28.979l38.211,127.35
	c-14.317,2.489-28.01,7.669-39.745,18.17c-12.56,11.238-21.059,26.829-25.827,47.745l-37.559-34.029
	c19.886-14.057,32.909-37.212,32.909-63.364c0-35.013-45.113-98.034-58.94-116.514C91.817,3.458,84.911,0,77.576,0
	S63.334,3.458,58.941,9.331C45.113,27.811,0,90.83,0,125.845c0,39.502,29.685,72.178,67.911,76.952l87.409,79.191
	c0.54,18.753,2.49,38.991,5.616,59.345h-34.333c-12.853,0-23.273,10.42-23.273,23.273s10.42,23.273,23.273,23.273h43.551
	c2.658,10.871,5.604,21.465,8.839,31.51c5.782,17.956,12.091,33.305,18.901,46.066h-19.47c-12.853,0-23.273,10.42-23.273,23.273
	S165.571,512,178.424,512H256h77.576c12.853,0,23.273-10.42,23.273-23.273s-10.42-23.273-23.273-23.273h-19.47
	c6.81-12.763,13.118-28.11,18.901-46.066c3.235-10.045,6.181-20.637,8.839-31.51h43.442c12.853,0,23.273-10.42,23.273-23.273
	s-10.42-23.273-23.273-23.273h-34.226c3.126-20.354,5.077-40.592,5.616-59.345l87.409-79.191
	C482.315,198.021,512,165.345,512,125.845C512,90.83,466.887,27.811,453.059,9.331z"/>
<path style="fill:#B8002B;" d="M213.169,488.727c-5.343-6.428-10.436-14.201-15.275-23.273h-19.47
	c-12.853,0-23.273,10.42-23.273,23.273S165.571,512,178.424,512H256C240.342,512,226.034,504.207,213.169,488.727z"/>
<path style="fill:#D8143A;" d="M256,512h77.576c12.853,0,23.273-10.42,23.273-23.273s-10.42-23.273-23.273-23.273h-19.47
	c-4.839,9.072-9.93,16.845-15.275,23.273C285.966,504.207,271.658,512,256,512z"/>
<path style="fill:#B8002B;" d="M249.04,155.228c2.324-0.054,4.647-0.076,6.96-0.076V97.44l-24.255-80.842
	C228.051,4.287,215.08-2.698,202.766,0.995c-12.311,3.693-19.298,16.668-15.604,28.979l38.211,127.35
	c4.333-0.754,8.726-1.261,13.14-1.593C242.015,155.466,245.53,155.308,249.04,155.228z"/>
<path style="fill:#D8143A;" d="M262.96,155.228c3.51,0.081,7.024,0.239,10.527,0.503c4.414,0.332,8.806,0.839,13.14,1.593
	l38.209-127.351c3.694-12.311-3.292-25.285-15.604-28.979c-12.308-3.697-25.285,3.292-28.979,15.604L256,97.44v57.712
	C258.313,155.152,260.636,155.173,262.96,155.228z"/>
<path style="fill:#B8002B;" d="M155.843,251.057c0.729-10.176,2.043-19.425,3.958-27.819l-37.559-34.029
	c-6.797,4.805-14.387,8.546-22.545,10.979c-7.014,2.091-14.435,3.232-22.12,3.232h-0.002c-3.274,0-6.495-0.228-9.664-0.624
	l87.409,79.191c-0.101-3.542-0.169-7.047-0.169-10.473C155.152,264.313,155.381,257.502,155.843,251.057z"/>
<path style="fill:#D8143A;" d="M434.424,203.421c-7.685,0-15.106-1.14-22.121-3.23c-8.158-2.431-15.749-6.173-22.545-10.977
	l-37.559,34.028c1.913,8.394,3.229,17.642,3.958,27.819c0.462,6.442,0.692,13.253,0.692,20.455c0,3.426-0.068,6.931-0.169,10.473
	l87.409-79.191c-3.17,0.396-6.388,0.624-9.661,0.624H434.424z"/>
<path style="fill:#B8002B;" d="M160.937,341.333h-34.333c-12.853,0-23.273,10.42-23.273,23.273s10.42,23.273,23.273,23.273h43.551
	c-1.866-7.644-3.603-15.416-5.154-23.273C163.475,356.884,162.13,349.103,160.937,341.333z"/>
<g>
	<path style="fill:#D8143A;" d="M341.845,387.879h43.442c12.853,0,23.273-10.42,23.273-23.273s-10.42-23.273-23.273-23.273h-34.226
		c-1.192,7.77-2.538,15.551-4.062,23.273C345.448,372.463,343.712,380.234,341.845,387.879z"/>
	<path style="fill:#D8143A;" d="M77.577,203.421c7.685,0,15.104-1.14,22.12-3.232c8.158-2.431,15.748-6.173,22.545-10.979
		c19.886-14.058,32.909-37.213,32.909-63.365c0-35.013-45.113-98.034-58.94-116.514C91.817,3.457,84.911,0,77.576,0
		S63.334,3.457,58.941,9.331C45.113,27.811,0,90.83,0,125.845c0,39.502,29.685,72.178,67.911,76.952
		C71.081,203.193,74.302,203.421,77.577,203.421L77.577,203.421z"/>
	<path style="fill:#D8143A;" d="M249.04,155.228c-3.51,0.081-7.024,0.239-10.527,0.503c-4.414,0.332-8.806,0.839-13.14,1.593
		c-14.317,2.489-28.009,7.669-39.745,18.17c-12.56,11.238-21.059,26.829-25.827,47.745c-1.913,8.394-3.229,17.642-3.958,27.819
		c-0.462,6.445-0.692,13.256-0.692,20.458c0,3.426,0.068,6.931,0.169,10.473c0.54,18.753,2.49,38.991,5.616,59.345
		c1.193,7.77,2.538,15.551,4.062,23.273c1.552,7.857,3.288,15.628,5.154,23.273c2.658,10.871,5.604,21.465,8.839,31.51
		c5.783,17.956,12.091,33.305,18.901,46.066c4.839,9.072,9.93,16.845,15.275,23.273C226.034,504.207,240.342,512,255.998,512
		V155.152C253.687,155.152,251.364,155.173,249.04,155.228z"/>
</g>
</svg>