<?xml version="1.0" encoding="UTF-8" standalone="no"?>
<!DOCTYPE svg PUBLIC "-//W3C//DTD SVG 1.1//EN" "http://www.w3.org/Graphics/SVG/1.1/DTD/svg11.dtd">
<svg width="100%" height="100%" viewBox="0 0 23623 23623" version="1.1" xmlns="http://www.w3.org/2000/svg" xmlns:xlink="http://www.w3.org/1999/xlink" xml:space="preserve" xmlns:serif="http://www.serif.com/" style="fill-rule:evenodd;clip-rule:evenodd;stroke-linecap:round;stroke-linejoin:round;stroke-miterlimit:1.5;">
    <g transform="matrix(1.12162,0,0,1.12162,-3372.11,3413.14)">
        <ellipse cx="13394.2" cy="16094.3" rx="2946.34" ry="828.187" style="fill:rgb(123,123,123);"/>
    </g>
    <g transform="matrix(1.50335,0,0,1.50335,-6913.63,520.889)">
        <path d="M11549.9,470.578C11231,1700.51 11490.7,2733.44 12510.5,3507.63L12420.7,2699.66C12420.7,2699.66 12566.3,3380.56 13286.6,3767.12C15316.4,4856.53 15108.4,7109.03 15108.4,7109.03C15365.1,6594.64 15425.9,6025.4 15378.7,5425.93C16741.8,7070.6 16614.6,13067.2 12421.6,13031.8C8228.62,12996.3 8637.99,8118.4 8971.8,6973.93C9305.61,5829.46 8881.68,4881.01 8881.68,4881.01C9430.43,4974.5 9881.52,5312.17 10143.4,6122.74C10143.4,6122.74 10825,4857.47 9973.2,3899.64C9585.18,3463.34 9762.37,2044.1 10103.4,1846.78C10189.5,2450.89 10387.4,2963.59 10924.5,3198.66C10659.3,2190.6 10789.8,1265 11549.9,470.578Z" style="fill:url(#_Linear1);"/>
    </g>
    <g transform="matrix(0.919275,0,0,0.919275,366.376,6011.71)">
        <path d="M10409.6,3346.18C11924.1,3622.62 13163.5,4927.78 13880.5,7088.83C14211.6,6590.99 14405.9,5913.3 14449.8,5297.28C16588.3,7424.48 16614.6,13067.2 12421.6,13031.8C8228.62,12996.3 8520.86,9301.84 8854.67,8157.36C9188.48,7012.89 10007.7,6658.41 10409.6,5660.8C10811.5,4663.18 10409.6,3346.18 10409.6,3346.18Z" style="fill:url(#_Linear2);"/>
    </g>
    <g transform="matrix(1.50335,0,0,1.50335,-6913.63,520.889)">
        <path d="M15379.6,5428.26C15688.7,6223.21 15673.9,7058.64 15016,7952.18C15076.2,7668.87 15102,7388.2 15108.4,7109.03L15109.9,7106.01C15365.3,6592.36 15425.8,6024.2 15378.7,5425.93L15379.6,5428.26Z" style="fill:url(#_Linear3);"/>
    </g>
    <g transform="matrix(1.50335,0,0,1.50335,-6913.63,520.889)">
        <path d="M12510.5,3507.63C11491.7,2734.21 11231.5,1702.58 11549,474.181L11549.9,470.578C10790.6,2193.15 11184.6,3756.43 13859,5004.73C13609.9,4471.11 13186.4,4017.61 12510.5,3507.63Z" style="fill:url(#_Linear4);"/>
    </g>
    <g transform="matrix(1.50335,0,0,1.50335,-6913.63,520.889)">
        <path d="M10924.9,3200.86L10924.5,3198.66C10388.4,2964.06 10190.3,2452.94 10103.9,1850.32L10103.4,1846.78C9947.58,2773.55 10088.7,3658.97 11811,4324.23C11313.6,3949.79 10997.4,3575.35 10924.9,3200.86Z" style="fill:url(#_Linear5);"/>
    </g>
    <g transform="matrix(1.50335,0,0,1.50335,-6913.63,520.889)">
        <path d="M10141.7,6126.16C9998.27,6416.32 9842.5,6665.58 9679.76,6891.57C9871.93,5897.49 9606.3,5227.02 8881.68,4881.01L8884.89,4881.56C9432.23,4975.86 9882.04,5313.79 10143.4,6122.74L10141.7,6126.16Z" style="fill:url(#_Linear6);"/>
    </g>
    <g transform="matrix(1.50335,0,0,1.50335,-6247.15,508.313)">
        <path d="M10933.3,8455.23C10898.6,8712.4 10888.2,9029.07 10933.3,9284.51C10978.9,9542.99 11344.6,9527.85 11374.8,9267.12C11405.9,8997.99 11397.5,8716.92 11355.5,8457.82C11314.7,8205.63 10968.4,8195.12 10933.3,8455.23Z"/>
    </g>
    <g transform="matrix(1.50335,0,0,1.50335,-3624.22,508.313)">
        <path d="M10933.3,8455.23C10898.6,8712.4 10888.2,9029.07 10933.3,9284.51C10978.9,9542.99 11344.6,9527.85 11374.8,9267.12C11405.9,8997.99 11397.5,8716.92 11355.5,8457.82C11314.7,8205.63 10968.4,8195.12 10933.3,8455.23Z"/>
    </g>
    <g transform="matrix(1.92252,0,0,1.92252,-11855.8,-3530.89)">
        <circle cx="11667.4" cy="9318.62" r="82.603" style="fill:white;"/>
    </g>
    <g transform="matrix(1.92252,0,0,1.92252,-9177.74,-3530.89)">
        <circle cx="11667.4" cy="9318.62" r="82.603" style="fill:white;"/>
    </g>
    <g transform="matrix(1.50335,0,0,1.50335,-5931.87,-2652.42)">
        <path d="M12605.6,12351.9C12393.6,12612.1 12059.1,12713.3 11695.8,12617" style="fill:none;stroke:black;stroke-width:249.44px;"/>
    </g>
    <g transform="matrix(0.66929,0.737307,-0.737307,0.66929,15188.4,-9158.88)">
        <path d="M19381.6,14521.6C19381.6,14521.6 18841.3,13935.6 18871.7,13174.5C18902.2,12413.5 19663.2,11972 19663.2,11972C19663.2,11972 19479.7,12456.1 19785,13128.8C20197.6,14038 19381.6,14521.6 19381.6,14521.6Z" style="fill:url(#_Linear7);"/>
    </g>
    <g transform="matrix(-0.66929,0.737307,0.737307,0.66929,8433.67,-9158.88)">
        <path d="M19381.6,14521.6C19381.6,14521.6 18841.3,13935.6 18871.7,13174.5C18902.2,12413.5 19663.2,11972 19663.2,11972C19663.2,11972 19479.7,12456.1 19785,13128.8C20197.6,14038 19381.6,14521.6 19381.6,14521.6Z" style="fill:url(#_Linear8);"/>
    </g>
    <defs>
        <linearGradient id="_Linear1" x1="0" y1="0" x2="1" y2="0" gradientUnits="userSpaceOnUse" gradientTransform="matrix(5930.52,9583.69,-9583.69,5930.52,8776.27,2636.31)"><stop offset="0" style="stop-color:rgb(252,164,28);stop-opacity:1"/><stop offset="1" style="stop-color:rgb(166,32,0);stop-opacity:1"/></linearGradient>
        <linearGradient id="_Linear2" x1="0" y1="0" x2="1" y2="0" gradientUnits="userSpaceOnUse" gradientTransform="matrix(5930.52,9583.69,-9583.69,5930.52,8776.27,2636.31)"><stop offset="0" style="stop-color:rgb(252,164,28);stop-opacity:1"/><stop offset="1" style="stop-color:rgb(166,32,0);stop-opacity:1"/></linearGradient>
        <linearGradient id="_Linear3" x1="0" y1="0" x2="1" y2="0" gradientUnits="userSpaceOnUse" gradientTransform="matrix(3757.13,5623.29,-5623.29,3757.13,8776.27,2737.65)"><stop offset="0" style="stop-color:rgb(252,164,28);stop-opacity:1"/><stop offset="1" style="stop-color:rgb(166,32,0);stop-opacity:1"/></linearGradient>
        <linearGradient id="_Linear4" x1="0" y1="0" x2="1" y2="0" gradientUnits="userSpaceOnUse" gradientTransform="matrix(3757.13,5623.29,-5623.29,3757.13,8776.27,2737.65)"><stop offset="0" style="stop-color:rgb(252,164,28);stop-opacity:1"/><stop offset="1" style="stop-color:rgb(166,32,0);stop-opacity:1"/></linearGradient>
        <linearGradient id="_Linear5" x1="0" y1="0" x2="1" y2="0" gradientUnits="userSpaceOnUse" gradientTransform="matrix(3757.13,5623.29,-5623.29,3757.13,8776.27,2737.65)"><stop offset="0" style="stop-color:rgb(252,164,28);stop-opacity:1"/><stop offset="1" style="stop-color:rgb(166,32,0);stop-opacity:1"/></linearGradient>
        <linearGradient id="_Linear6" x1="0" y1="0" x2="1" y2="0" gradientUnits="userSpaceOnUse" gradientTransform="matrix(3757.13,5623.29,-5623.29,3757.13,8776.27,2737.65)"><stop offset="0" style="stop-color:rgb(252,164,28);stop-opacity:1"/><stop offset="1" style="stop-color:rgb(166,32,0);stop-opacity:1"/></linearGradient>
        <linearGradient id="_Linear7" x1="0" y1="0" x2="1" y2="0" gradientUnits="userSpaceOnUse" gradientTransform="matrix(-1197.17,-2496.26,2496.26,-1197.17,20067.6,14416.7)"><stop offset="0" style="stop-color:rgb(167,34,0);stop-opacity:1"/><stop offset="1" style="stop-color:rgb(252,164,28);stop-opacity:1"/></linearGradient>
        <linearGradient id="_Linear8" x1="0" y1="0" x2="1" y2="0" gradientUnits="userSpaceOnUse" gradientTransform="matrix(-1197.17,-2496.26,2496.26,-1197.17,20067.6,14416.7)"><stop offset="0" style="stop-color:rgb(167,34,0);stop-opacity:1"/><stop offset="1" style="stop-color:rgb(252,164,28);stop-opacity:1"/></linearGradient>
    </defs>
</svg>
